<?xml version="1.0" standalone="no"?>
<!DOCTYPE svg PUBLIC "-//W3C//DTD SVG 20010904//EN"
 "http://www.w3.org/TR/2001/REC-SVG-20010904/DTD/svg10.dtd">
<svg version="1.0" xmlns="http://www.w3.org/2000/svg"
 width="1600.000000pt" height="1600.000000pt" viewBox="0 0 1600.000000 1600.000000"
 preserveAspectRatio="xMidYMid meet">
<metadata>
Created by potrace 1.11, written by Peter Selinger 2001-2013
</metadata>
<g transform="translate(0.000000,1600.000000) scale(0.100000,-0.100000)"
fill="#000000" stroke="none">
<path d="M7810 12326 c-183 -103 -1489 -852 -2632 -1510 l-588 -338 0 -1978 0
-1977 1700 -977 c1559 -896 1701 -976 1722 -965 13 7 642 369 1398 804 756
436 1512 871 1680 967 l305 174 3 1976 2 1975 -1699 977 c-934 537 -1700 976
-1703 976 -2 0 -87 -47 -188 -104z m465 -371 c22 -12 560 -320 1195 -685 635
-364 1180 -676 1210 -692 30 -17 60 -34 65 -38 6 -4 30 -19 55 -32 25 -14 99
-56 165 -94 66 -38 132 -75 148 -83 l27 -14 0 -1811 -1 -1811 -475 -275 c-262
-151 -495 -286 -518 -299 -22 -13 -188 -108 -367 -212 -180 -104 -329 -189
-333 -189 -3 0 -6 1078 -6 2395 l0 2395 125 0 125 0 0 -1900 0 -1900 -50 0
-50 0 0 -225 0 -225 225 0 225 0 0 225 0 225 -40 0 -40 0 0 2015 0 2015 -640
0 -640 0 0 -800 0 -800 -685 0 -685 0 0 575 0 575 55 0 55 0 0 230 0 230 -225
0 -225 0 0 -230 0 -230 50 0 50 0 0 -695 0 -695 920 0 920 0 0 805 0 805 135
0 135 0 0 -940 0 -940 -1185 0 -1185 0 2 1402 3 1403 590 340 590 341 120 -69
c66 -38 138 -79 160 -92z m-1741 -3077 l1 -2383 -108 1 c-59 1 -110 4 -114 8
-3 3 -7 846 -7 1874 -1 1812 0 1912 27 1886 6 -6 88 92 91 108 1 7 5 19 9 26
5 6 6 16 2 21 -3 5 -1 12 4 15 21 13 -7 176 -30 176 -5 0 -9 8 -9 18 0 20 -64
85 -74 75 -3 -4 -6 -2 -6 3 0 16 -72 43 -127 48 -54 4 -133 -10 -144 -27 -3
-5 -9 -7 -12 -5 -14 8 -97 -77 -113 -115 -35 -83 -37 -192 -3 -233 6 -8 8 -14
3 -14 -5 0 -2 -6 7 -13 9 -7 18 -16 20 -22 6 -16 52 -65 57 -60 2 2 11 -3 20
-12 14 -13 15 -218 16 -2004 l0 -1990 20 -4 c12 -2 300 -3 641 -2 l620 2 1
798 c1 438 4 800 7 804 4 3 307 7 674 7 l668 1 0 -540 0 -540 -26 -20 c-50
-39 -121 -125 -103 -125 3 0 1 -7 -7 -16 -13 -15 -17 -102 -7 -155 18 -98 129
-193 238 -202 170 -16 304 103 303 268 0 33 -6 74 -13 90 -7 17 -13 33 -12 38
1 4 -3 7 -8 7 -6 0 -10 5 -10 12 0 12 -65 77 -94 94 -19 10 -19 35 -19 675 l0
666 -922 0 -922 0 1 -809 c1 -801 1 -808 -19 -809 -11 0 -69 -1 -130 -2 l-110
-2 2 930 c1 511 2 937 2 945 1 13 137 15 1169 14 643 0 1173 -3 1178 -6 5 -4
9 -565 8 -1408 -1 -1370 -1 -1403 -20 -1417 -10 -8 -39 -26 -64 -39 -83 -45
-155 -87 -160 -93 -3 -3 -34 -21 -70 -40 -36 -19 -72 -40 -81 -47 -8 -8 -18
-14 -21 -14 -4 0 -46 -23 -95 -51 -48 -29 -167 -97 -263 -152 -96 -55 -177
-103 -180 -106 -3 -4 -16 -12 -30 -19 -27 -14 -66 -36 -145 -81 l-50 -28 -60
31 c-33 17 -62 34 -65 37 -3 3 -17 12 -31 20 -33 18 -115 64 -154 87 -60 35
-123 72 -280 161 -88 51 -167 96 -175 101 -48 29 -126 74 -405 234 -170 98
-316 183 -322 188 -7 6 -13 7 -13 2 0 -5 -4 -4 -8 2 -4 6 -27 22 -52 36 -55
31 -149 85 -170 98 -8 5 -71 41 -140 80 -69 39 -132 75 -140 80 -30 19 -166
98 -210 122 -25 14 -61 35 -80 46 -19 12 -56 33 -82 47 -26 13 -49 29 -53 35
-4 6 -11 8 -16 5 -5 -4 -9 -2 -9 3 0 4 -30 24 -67 43 -38 19 -70 36 -73 39 -8
9 -360 210 -367 210 -4 0 -14 6 -22 14 -9 7 -45 29 -81 48 l-65 34 2 1784 c2
1995 1 1845 9 1837 4 -3 21 4 38 17 17 13 63 40 101 61 39 21 72 42 73 47 2 4
7 8 12 8 9 0 241 130 250 140 3 3 16 11 30 18 14 6 32 16 40 21 8 6 60 36 115
67 55 31 143 82 195 112 52 30 109 62 125 72 17 9 75 43 130 75 55 32 116 67
135 78 196 110 388 222 399 233 8 8 17 11 20 9 2 -3 5 -1077 5 -2387z"/>
</g>
</svg>
